{"title":"Skylar Grey - Get Lucky (Daft Punk cover).mp4","uid":8984758,"size":98309235,"categoryP":"video","categoryS":"music_videos","magnet":"?xt=urn:btih:cb4a6f7c18cc6822b8d95fd5fdd0d18903f5395f&amp;dn=Skylar+Grey+-+Get+Lucky+%28Daft+Punk+cover%29.mp4&amp;tr=udp%3A%2F%2Ftracker.openbittorrent.com%3A80&amp;tr=udp%3A%2F%2Fopen.demonii.com%3A1337&amp;tr=udp%3A%2F%2Ftracker.coppersurfer.tk%3A6969&amp;tr=udp%3A%2F%2Fexodus.desync.com%3A6969","seeders":4,"leechers":0,"uploader":"JetWhoreBattlefield","files":1,"time":1380645016,"description":"General\nComplete name : Skylar Grey - Get Lucky \nFormat : MPEG-4\nFormat profile : Base Media / Version 2\nCodec ID : mp42\nFile size : 93.8 MiB\nDuration : 4mn 14s\nOverall bit rate mode : Variable\nOverall bit rate : 3 096 Kbps\n----------------------------------------------------------\nVideo\nID : 1\nFormat : AVC\nFormat/Info : Advanced Video Codec\nFormat profile : &lt;a class=&quot;__cf_email__&quot; href=&quot;/cdn-cgi/l/email-protection&quot; data-cfemail=&quot;5018393738101c637e61&quot;&gt;[email&amp;#160;protected]&lt;/a&gt;&lt;script cf-hash='f9e31' type=&quot;text/javascript&quot;&gt;\n/* &lt;![CDATA[ */!function(){try{var t=&quot;currentScript&quot;in document?document.currentScript:function(){for(var t=document.getElementsByTagName(&quot;script&quot;),e=t.length;e--;)if(t[e].getAttribute(&quot;cf-hash&quot;))return t[e]}();if(t&amp;&amp;t.previousSibling){var e,r,n,i,c=t.previousSibling,a=c.getAttribute(&quot;data-cfemail&quot;);if(a){for(e=&quot;&quot;,r=parseInt(a.substr(0,2),16),n=2;a.length-n;n+=2)i=parseInt(a.substr(n,2),16)^r,e+=String.fromCharCode(i);e=document.createTextNode(e),c.parentNode.replaceChild(e,c)}}}catch(u){}}();/* ]]&gt; */&lt;/script&gt;\nFormat settings, CABAC : Yes\nFormat settings, ReFrames : 1 frame\nCodec ID : avc1\nCodec ID/Info : Advanced Video Coding\nDuration : 4mn 14s\nBit rate : 2 902 Kbps\nMaximum bit rate : 8 900 Kbps\nWidth : 1 280 pixels\nHeight : 720 pixels\nDisplay aspect ratio : 16:9\nFrame rate mode : Constant\nFrame rate : 23.976 fps\nColor space : YUV\nChroma subsampling : 4:2:0\nBit depth : 8 bits\nScan type : Progressive\nBits/(Pixel*Frame) : 0.131\nStream size : 87.9 MiB (94%)\n----------------------------------------------------------\nAudio\nID : 2\nFormat : AAC\nFormat/Info : Advanced Audio Codec\nFormat profile : LC\nCodec ID : 40\nDuration : 4mn 14s\nBit rate mode : Variable\nBit rate : 192 Kbps\nMaximum bit rate : 203 Kbps\nChannel(s) : 2 channels\nChannel positions : Front: L R\nSampling rate : 44.1 KHz\nCompression mode : Lossy\nStream size : 5.81 MiB (6%)\n----------------------------------------------------------\nEncoded by Eisa\nSEED SEED SEED","torrent":{"xt":"urn:btih:cb4a6f7c18cc6822b8d95fd5fdd0d18903f5395f","amp;dn":"Skylar+Grey+-+Get+Lucky+%28Daft+Punk+cover%29.mp4","amp;tr":["udp%3A%2F%2Ftracker.openbittorrent.com%3A80","udp%3A%2F%2Fopen.demonii.com%3A1337","udp%3A%2F%2Ftracker.coppersurfer.tk%3A6969","udp%3A%2F%2Fexodus.desync.com%3A6969"],"infoHash":"cb4a6f7c18cc6822b8d95fd5fdd0d18903f5395f","infoHashBuffer":{"type":"Buffer","data":[203,74,111,124,24,204,104,34,184,217,95,213,253,208,209,137,3,245,57,95]},"announce":[],"urlList":[]}}